<svg xmlns="http://www.w3.org/2000/svg" version="1.1" xmlns:xlink="http://www.w3.org/1999/xlink" xmlns:svgjs="http://svgjs.dev/svgjs" width="2000" height="560" preserveAspectRatio="none" viewBox="0 0 2000 560"><g mask="url(&quot;#SvgjsMask1169&quot;)" fill="none"><rect width="2000" height="560" x="0" y="0" fill="rgba(21, 67, 96, 1)"></rect><path d="M0,555.201C107.104,578.575,218.953,542.743,315.849,491.471C418.296,437.262,510.134,360.25,563.18,257.196C617.565,151.54,642.152,27.198,614.289,-88.321C587.441,-199.635,500.511,-283.574,414.514,-359.179C337.254,-427.103,241.426,-459.441,146.652,-499.45C38.873,-544.948,-70.687,-653.866,-179.037,-609.744C-290.037,-564.543,-275.039,-396.29,-345.233,-299.146C-406.458,-214.415,-540.841,-183.217,-561.309,-80.704C-581.75,21.674,-506.374,118.614,-445.591,203.494C-392.83,277.172,-309.283,314.423,-238.15,370.568C-157.676,434.087,-100.164,533.341,0,555.201" fill="#103349"></path><path d="M2000 1252.366C2132.587 1255.79 2262.005 1213.008 2373.763 1141.586 2485.708 1070.045 2573.167 967.745 2631.862 848.562 2691.77 726.918 2748.5389999999998 587.996 2710.492 457.847 2673.364 330.84000000000003 2533.91 271.404 2436.849 181.46800000000002 2351.714 102.58300000000003 2280.721 11.235000000000014 2175.541-37.83600000000001 2057.914-92.71400000000006 1928.818-141.81799999999998 1801.868-114.774 1671.435-86.98800000000006 1582.092 23.351999999999975 1480.848 110.15300000000002 1361.566 212.418 1160.779 281.64 1156.304 438.695 1151.6779999999999 601.037 1367.438 673.408 1461.016 806.146 1532.137 907.029 1543.365 1043.882 1638.442 1122.596 1739.113 1205.941 1869.35 1248.992 2000 1252.366" fill="#1a5377"></path></g><defs><mask id="SvgjsMask1169"><rect width="2000" height="560" fill="#ffffff"></rect></mask></defs></svg>